<svg xmlns="http://www.w3.org/2000/svg" xmlns:xlink="http://www.w3.org/1999/xlink" width="500" zoomAndPan="magnify" viewBox="0 0 375 374.999991" height="500" preserveAspectRatio="xMidYMid meet" version="1.0"><defs><clipPath id="3c999b1e5b"><path d="M 59.242188 140.394531 L 315.742188 140.394531 L 315.742188 234.894531 L 59.242188 234.894531 Z M 59.242188 140.394531 " clip-rule="nonzero"/></clipPath></defs><rect x="-37.5" width="450" fill="#ffffff" y="-37.499999" height="449.999989" fill-opacity="1"/><rect x="-37.5" width="450" fill="#09090b" y="-37.499999" height="449.999989" fill-opacity="1"/><g clip-path="url(#3c999b1e5b)"><path fill="#10b981" d="M 288.449219 154.945312 C 305.53125 160.398438 306.550781 178.84375 297.125 187.503906 C 288.238281 195.671875 271.625 197.027344 259.277344 185.652344 C 269.328125 189.542969 278.796875 190.25 287.292969 187.542969 C 279.835938 186.191406 270.914062 183.390625 263.703125 174.59375 C 269.96875 177.125 276.097656 177.488281 282.566406 176.558594 C 266.855469 173.523438 259.847656 159.765625 249.105469 150.078125 C 243.375 144.914062 237.199219 141.660156 230.347656 140.703125 C 223.082031 139.691406 214.574219 141.1875 208.824219 144.847656 C 218.265625 143.871094 227.875 146.746094 231.503906 152.710938 C 215.683594 144.8125 194.753906 147.722656 187.5 162.179688 C 180.242188 147.726562 159.316406 144.8125 143.5 152.710938 C 147.125 146.746094 156.730469 143.871094 166.175781 144.847656 C 160.425781 141.1875 151.914062 139.691406 144.652344 140.703125 C 137.796875 141.660156 131.628906 144.914062 125.894531 150.082031 C 115.148438 159.765625 108.144531 173.523438 92.425781 176.558594 C 98.898438 177.488281 105.027344 177.125 111.292969 174.59375 C 104.085938 183.390625 95.160156 186.191406 87.703125 187.542969 C 96.199219 190.25 105.664062 189.546875 115.71875 185.652344 C 103.371094 197.027344 86.753906 195.671875 77.875 187.507812 C 68.445312 178.84375 69.464844 160.398438 86.550781 154.949219 C 57.992188 151.222656 46.8125 198.476562 79.339844 216.625 C 73.121094 215.085938 66.960938 212.433594 60.902344 207.285156 C 81.453125 245.753906 146.066406 238.527344 163.902344 216.625 C 163.855469 221.363281 162.144531 225.738281 159.476562 229.902344 C 171.496094 224.898438 183.347656 213.980469 187.496094 198.679688 C 191.648438 213.980469 203.5 224.898438 215.519531 229.902344 C 212.851562 225.738281 211.140625 221.363281 211.09375 216.625 C 228.929688 238.527344 293.542969 245.753906 314.09375 207.285156 C 308.039062 212.433594 301.875 215.085938 295.660156 216.625 C 328.1875 198.476562 317 151.222656 288.449219 154.945312 Z M 121.085938 219.164062 C 142.9375 214.164062 161.960938 204.136719 173.324219 180.445312 C 167.058594 206.289062 147.179688 219.742188 121.085938 219.164062 Z M 201.675781 180.445312 C 213.035156 204.136719 232.0625 214.164062 253.910156 219.164062 C 227.820312 219.742188 207.9375 206.289062 201.675781 180.445312 Z M 201.675781 180.445312 " fill-opacity="1" fill-rule="evenodd"/></g></svg>