<svg xmlns="http://www.w3.org/2000/svg" xmlns:xlink="http://www.w3.org/1999/xlink" width="343" zoomAndPan="magnify" viewBox="0 0 257.25 103.5" height="138" preserveAspectRatio="xMidYMid meet" version="1.0"><defs><g/><clipPath id="92a08f726c"><path d="M 31 34 L 40 34 L 40 103.003906 L 31 103.003906 Z M 31 34 " clip-rule="nonzero"/></clipPath></defs><g fill="#e4e2dd" fill-opacity="1"><g transform="translate(55.296663, 65.86817)"><g><path d="M 15.09375 -28.15625 C 16.65625 -28.15625 18.195312 -27.972656 19.71875 -27.609375 C 21.25 -27.253906 22.390625 -26.898438 23.140625 -26.546875 L 24.25 -26.015625 L 21.171875 -19.828125 C 19.035156 -20.960938 17.007812 -21.53125 15.09375 -21.53125 C 14.019531 -21.53125 13.257812 -21.414062 12.8125 -21.1875 C 12.375 -20.957031 12.15625 -20.523438 12.15625 -19.890625 C 12.15625 -19.742188 12.171875 -19.597656 12.203125 -19.453125 C 12.242188 -19.316406 12.316406 -19.1875 12.421875 -19.0625 C 12.523438 -18.9375 12.617188 -18.828125 12.703125 -18.734375 C 12.796875 -18.648438 12.945312 -18.550781 13.15625 -18.4375 C 13.375 -18.332031 13.546875 -18.253906 13.671875 -18.203125 C 13.796875 -18.148438 14 -18.070312 14.28125 -17.96875 C 14.570312 -17.863281 14.785156 -17.78125 14.921875 -17.71875 C 15.066406 -17.664062 15.304688 -17.585938 15.640625 -17.484375 C 15.984375 -17.378906 16.242188 -17.304688 16.421875 -17.265625 C 17.523438 -16.953125 18.484375 -16.597656 19.296875 -16.203125 C 20.117188 -15.816406 20.984375 -15.285156 21.890625 -14.609375 C 22.796875 -13.929688 23.492188 -13.078125 23.984375 -12.046875 C 24.484375 -11.015625 24.734375 -9.84375 24.734375 -8.53125 C 24.734375 -2.3125 20.414062 0.796875 11.78125 0.796875 C 9.820312 0.796875 7.960938 0.492188 6.203125 -0.109375 C 4.453125 -0.710938 3.1875 -1.316406 2.40625 -1.921875 L 1.21875 -2.875 L 5.0625 -9.328125 C 5.34375 -9.078125 5.710938 -8.78125 6.171875 -8.4375 C 6.640625 -8.101562 7.476562 -7.644531 8.6875 -7.0625 C 9.894531 -6.476562 10.941406 -6.1875 11.828125 -6.1875 C 13.785156 -6.1875 14.765625 -6.84375 14.765625 -8.15625 C 14.765625 -8.757812 14.515625 -9.226562 14.015625 -9.5625 C 13.523438 -9.90625 12.679688 -10.289062 11.484375 -10.71875 C 10.296875 -11.144531 9.363281 -11.535156 8.6875 -11.890625 C 6.976562 -12.773438 5.625 -13.773438 4.625 -14.890625 C 3.632812 -16.015625 3.140625 -17.503906 3.140625 -19.359375 C 3.140625 -22.128906 4.210938 -24.285156 6.359375 -25.828125 C 8.515625 -27.378906 11.425781 -28.15625 15.09375 -28.15625 Z M 15.09375 -28.15625 "/></g></g></g><g fill="#e4e2dd" fill-opacity="1"><g transform="translate(76.986882, 65.86817)"><g><path d="M 3.203125 0 L 3.203125 -45.84375 L 12.640625 -45.84375 L 12.640625 -24.46875 L 12.734375 -24.46875 C 15.191406 -26.925781 17.804688 -28.15625 20.578125 -28.15625 C 21.929688 -28.15625 23.273438 -27.972656 24.609375 -27.609375 C 25.941406 -27.253906 27.21875 -26.703125 28.4375 -25.953125 C 29.664062 -25.210938 30.660156 -24.15625 31.421875 -22.78125 C 32.191406 -21.414062 32.578125 -19.828125 32.578125 -18.015625 L 32.578125 0 L 23.140625 0 L 23.140625 -15.453125 C 23.140625 -16.878906 22.6875 -18.125 21.78125 -19.1875 C 20.875 -20.257812 19.691406 -20.796875 18.234375 -20.796875 C 16.804688 -20.796875 15.515625 -20.242188 14.359375 -19.140625 C 13.210938 -18.035156 12.640625 -16.804688 12.640625 -15.453125 L 12.640625 0 Z M 3.203125 0 "/></g></g></g><g fill="#e4e2dd" fill-opacity="1"><g transform="translate(107.684151, 65.86817)"><g><path d="M 5.0625 -3.390625 C 2.5 -6.179688 1.21875 -9.597656 1.21875 -13.640625 C 1.21875 -17.691406 2.5 -21.125 5.0625 -23.9375 C 7.625 -26.75 10.878906 -28.15625 14.828125 -28.15625 C 18.453125 -28.15625 21.4375 -27.015625 23.78125 -24.734375 L 23.78125 -27.34375 L 33.21875 -27.34375 L 33.21875 0 L 23.890625 0 L 23.890625 -3.09375 L 23.78125 -3.09375 C 21.4375 -0.5 18.453125 0.796875 14.828125 0.796875 C 10.878906 0.796875 7.625 -0.597656 5.0625 -3.390625 Z M 13.078125 -18.28125 C 11.859375 -17.070312 11.25 -15.523438 11.25 -13.640625 C 11.25 -11.765625 11.832031 -10.226562 13 -9.03125 C 14.175781 -7.84375 15.722656 -7.25 17.640625 -7.25 C 19.492188 -7.25 21.015625 -7.851562 22.203125 -9.0625 C 23.390625 -10.269531 23.984375 -11.796875 23.984375 -13.640625 C 23.984375 -15.523438 23.367188 -17.070312 22.140625 -18.28125 C 20.921875 -19.488281 19.421875 -20.09375 17.640625 -20.09375 C 15.828125 -20.09375 14.304688 -19.488281 13.078125 -18.28125 Z M 13.078125 -18.28125 "/></g></g></g><g fill="#e4e2dd" fill-opacity="1"><g transform="translate(139.553937, 65.86817)"><g><path d="M 10.125 -27.34375 L 16.796875 -12.46875 L 23.453125 -27.34375 L 34.65625 -27.34375 L 20 0 L 13.59375 0 L -1.0625 -27.34375 Z M 10.125 -27.34375 "/></g></g></g><g fill="#e4e2dd" fill-opacity="1"><g transform="translate(168.59902, 65.86817)"><g><path d="M 30.875 -12.375 L 11.03125 -12.375 C 11.03125 -10.445312 11.648438 -9.019531 12.890625 -8.09375 C 14.140625 -7.175781 15.492188 -6.71875 16.953125 -6.71875 C 18.484375 -6.71875 19.691406 -6.921875 20.578125 -7.328125 C 21.460938 -7.734375 22.476562 -8.539062 23.625 -9.75 L 30.4375 -6.34375 C 27.59375 -1.582031 22.867188 0.796875 16.265625 0.796875 C 12.140625 0.796875 8.597656 -0.613281 5.640625 -3.4375 C 2.691406 -6.257812 1.21875 -9.660156 1.21875 -13.640625 C 1.21875 -17.628906 2.691406 -21.046875 5.640625 -23.890625 C 8.597656 -26.734375 12.140625 -28.15625 16.265625 -28.15625 C 20.597656 -28.15625 24.125 -26.898438 26.84375 -24.390625 C 29.5625 -21.878906 30.921875 -18.296875 30.921875 -13.640625 C 30.921875 -13.003906 30.90625 -12.582031 30.875 -12.375 Z M 11.296875 -17.59375 L 21.703125 -17.59375 C 21.484375 -19.007812 20.921875 -20.097656 20.015625 -20.859375 C 19.109375 -21.628906 17.945312 -22.015625 16.53125 -22.015625 C 14.96875 -22.015625 13.722656 -21.601562 12.796875 -20.78125 C 11.867188 -19.96875 11.367188 -18.90625 11.296875 -17.59375 Z M 11.296875 -17.59375 "/></g></g></g><path stroke-linecap="butt" transform="matrix(0.746394, 0, 0, 0.746394, 31.567013, 94.129701)" fill="none" stroke-linejoin="miter" d="M -0.000812552 5.002157 L 84.431156 5.002157 " stroke="#e4e2dd" stroke-width="10" stroke-opacity="1" stroke-miterlimit="4"/><g clip-path="url(#92a08f726c)"><path stroke-linecap="butt" transform="matrix(0, 0.746394, -0.746394, 0, 39.027128, 37.808098)" fill="none" stroke-linejoin="miter" d="M 0.000663979 4.997698 L 82.464838 4.997698 " stroke="#e4e2dd" stroke-width="10" stroke-opacity="1" stroke-miterlimit="4"/></g><path stroke-linecap="butt" transform="matrix(-0.746394, 0, 0, -0.746394, 223.552809, 13.365878)" fill="none" stroke-linejoin="miter" d="M -0.0025173 5.001466 L 84.434684 5.001466 " stroke="#e4e2dd" stroke-width="10" stroke-opacity="1" stroke-miterlimit="4"/><path stroke-linecap="butt" transform="matrix(0, -0.746394, 0.746394, 0, 216.0927, 69.687476)" fill="none" stroke-linejoin="miter" d="M -0.0000321427 4.999394 L 82.464142 4.999394 " stroke="#e4e2dd" stroke-width="10" stroke-opacity="1" stroke-miterlimit="4"/></svg>